<mxfile host="app.diagrams.net" modified="2024-03-26T16:30:35.050Z" agent="Mozilla/5.0 (Windows NT 10.0; Win64; x64; rv:124.0) Gecko/20100101 Firefox/124.0" etag="pl0udZwEM9BeL_OoEQFn" version="24.1.0" type="google" pages="2">
  <diagram name="Storage" id="lpMqeaYy-17rv6HrHxLu">
    <mxGraphModel grid="1" page="1" gridSize="10" guides="1" tooltips="1" connect="1" arrows="1" fold="1" pageScale="1" pageWidth="850" pageHeight="1100" math="0" shadow="0">
      <root>
        <mxCell id="0" />
        <mxCell id="1" parent="0" />
        <mxCell id="DSboo58tcuAL-52WsQlw-30" value="" style="rounded=1;whiteSpace=wrap;html=1;horizontal=1;verticalAlign=middle;fillColor=#f5f5f5;fontColor=#333333;align=left;strokeColor=#666666;" vertex="1" parent="1">
          <mxGeometry x="60" y="700" width="240" height="220" as="geometry" />
        </mxCell>
        <mxCell id="DSboo58tcuAL-52WsQlw-1" value="" style="rounded=1;whiteSpace=wrap;html=1;horizontal=1;verticalAlign=top;fillColor=#f5f5f5;fontColor=#333333;strokeColor=#666666;" vertex="1" parent="1">
          <mxGeometry x="60" y="280" width="240" height="120" as="geometry" />
        </mxCell>
        <mxCell id="DSboo58tcuAL-52WsQlw-40" style="edgeStyle=orthogonalEdgeStyle;rounded=0;orthogonalLoop=1;jettySize=auto;html=1;exitX=1;exitY=0.5;exitDx=0;exitDy=0;dashed=1;endArrow=none;endFill=0;" edge="1" parent="1" source="DSboo58tcuAL-52WsQlw-2" target="DSboo58tcuAL-52WsQlw-3">
          <mxGeometry relative="1" as="geometry" />
        </mxCell>
        <mxCell id="DSboo58tcuAL-52WsQlw-2" value="container" style="whiteSpace=wrap;html=1;aspect=fixed;fillColor=#dae8fc;strokeColor=#6c8ebf;" vertex="1" parent="1">
          <mxGeometry x="80" y="300" width="80" height="80" as="geometry" />
        </mxCell>
        <mxCell id="DSboo58tcuAL-52WsQlw-3" value="Persistent&lt;div&gt;Volume&lt;/div&gt;&lt;div&gt;Claim&lt;/div&gt;&lt;div&gt;(zfs-rwo)&lt;/div&gt;" style="whiteSpace=wrap;html=1;aspect=fixed;fillColor=#e1d5e7;strokeColor=#9673a6;" vertex="1" parent="1">
          <mxGeometry x="200" y="300" width="80" height="80" as="geometry" />
        </mxCell>
        <mxCell id="DSboo58tcuAL-52WsQlw-5" value="OpenEBS" style="whiteSpace=wrap;html=1;aspect=fixed;" vertex="1" parent="1">
          <mxGeometry x="508" y="700" width="80" height="80" as="geometry" />
        </mxCell>
        <mxCell id="DSboo58tcuAL-52WsQlw-51" style="edgeStyle=orthogonalEdgeStyle;rounded=0;orthogonalLoop=1;jettySize=auto;html=1;exitX=0;exitY=0.5;exitDx=0;exitDy=0;entryX=0.5;entryY=0;entryDx=0;entryDy=0;" edge="1" parent="1" source="DSboo58tcuAL-52WsQlw-6" target="DSboo58tcuAL-52WsQlw-5">
          <mxGeometry relative="1" as="geometry" />
        </mxCell>
        <mxCell id="DSboo58tcuAL-52WsQlw-59" style="edgeStyle=orthogonalEdgeStyle;rounded=0;orthogonalLoop=1;jettySize=auto;html=1;exitX=0.5;exitY=1;exitDx=0;exitDy=0;entryX=1;entryY=0.5;entryDx=0;entryDy=0;" edge="1" parent="1" source="DSboo58tcuAL-52WsQlw-6" target="DSboo58tcuAL-52WsQlw-33">
          <mxGeometry relative="1" as="geometry" />
        </mxCell>
        <mxCell id="DSboo58tcuAL-52WsQlw-60" value="Creates &amp;amp; Binds Volume" style="edgeLabel;html=1;align=center;verticalAlign=middle;resizable=0;points=[];" vertex="1" connectable="0" parent="DSboo58tcuAL-52WsQlw-59">
          <mxGeometry x="0.0183" y="-4" relative="1" as="geometry">
            <mxPoint x="-135" y="4" as="offset" />
          </mxGeometry>
        </mxCell>
        <mxCell id="DSboo58tcuAL-52WsQlw-64" style="edgeStyle=orthogonalEdgeStyle;rounded=0;orthogonalLoop=1;jettySize=auto;html=1;exitX=0.5;exitY=0;exitDx=0;exitDy=0;entryX=1;entryY=0.5;entryDx=0;entryDy=0;" edge="1" parent="1" source="DSboo58tcuAL-52WsQlw-6" target="DSboo58tcuAL-52WsQlw-10">
          <mxGeometry relative="1" as="geometry" />
        </mxCell>
        <mxCell id="DSboo58tcuAL-52WsQlw-65" value="Creates &amp;amp; Binds Volume" style="edgeLabel;html=1;align=center;verticalAlign=middle;resizable=0;points=[];" vertex="1" connectable="0" parent="DSboo58tcuAL-52WsQlw-64">
          <mxGeometry x="0.8474" y="1" relative="1" as="geometry">
            <mxPoint x="42" y="-1" as="offset" />
          </mxGeometry>
        </mxCell>
        <mxCell id="DSboo58tcuAL-52WsQlw-6" value="OpenEBS&lt;div&gt;ZFS Operator&lt;/div&gt;" style="whiteSpace=wrap;html=1;aspect=fixed;" vertex="1" parent="1">
          <mxGeometry x="608" y="590" width="80" height="80" as="geometry" />
        </mxCell>
        <mxCell id="DSboo58tcuAL-52WsQlw-7" value="Storage Class&lt;div&gt;zfs-rwo&lt;/div&gt;" style="whiteSpace=wrap;html=1;aspect=fixed;fillColor=#e1d5e7;strokeColor=#9673a6;" vertex="1" parent="1">
          <mxGeometry x="670" y="540" width="60" height="60" as="geometry" />
        </mxCell>
        <mxCell id="DSboo58tcuAL-52WsQlw-52" style="edgeStyle=orthogonalEdgeStyle;rounded=0;orthogonalLoop=1;jettySize=auto;html=1;exitX=1;exitY=0.5;exitDx=0;exitDy=0;" edge="1" parent="1" source="DSboo58tcuAL-52WsQlw-8" target="DSboo58tcuAL-52WsQlw-5">
          <mxGeometry relative="1" as="geometry" />
        </mxCell>
        <mxCell id="DSboo58tcuAL-52WsQlw-53" style="edgeStyle=orthogonalEdgeStyle;rounded=0;orthogonalLoop=1;jettySize=auto;html=1;exitX=0.5;exitY=1;exitDx=0;exitDy=0;entryX=1;entryY=0.5;entryDx=0;entryDy=0;" edge="1" parent="1" source="DSboo58tcuAL-52WsQlw-8" target="DSboo58tcuAL-52WsQlw-30">
          <mxGeometry relative="1" as="geometry" />
        </mxCell>
        <mxCell id="DSboo58tcuAL-52WsQlw-54" value="Deploys NFS&lt;div&gt;Server&lt;/div&gt;" style="edgeLabel;html=1;align=center;verticalAlign=middle;resizable=0;points=[];" vertex="1" connectable="0" parent="DSboo58tcuAL-52WsQlw-53">
          <mxGeometry x="-0.5852" y="2" relative="1" as="geometry">
            <mxPoint x="-2" y="-16" as="offset" />
          </mxGeometry>
        </mxCell>
        <mxCell id="DSboo58tcuAL-52WsQlw-66" style="edgeStyle=orthogonalEdgeStyle;rounded=0;orthogonalLoop=1;jettySize=auto;html=1;exitX=0.5;exitY=0;exitDx=0;exitDy=0;entryX=1;entryY=0.5;entryDx=0;entryDy=0;" edge="1" parent="1" source="DSboo58tcuAL-52WsQlw-8" target="DSboo58tcuAL-52WsQlw-28">
          <mxGeometry relative="1" as="geometry" />
        </mxCell>
        <mxCell id="DSboo58tcuAL-52WsQlw-67" value="Creates &amp;amp; Binds Volume" style="edgeLabel;html=1;align=center;verticalAlign=middle;resizable=0;points=[];" vertex="1" connectable="0" parent="DSboo58tcuAL-52WsQlw-66">
          <mxGeometry x="0.0253" y="-1" relative="1" as="geometry">
            <mxPoint x="31" y="-29" as="offset" />
          </mxGeometry>
        </mxCell>
        <mxCell id="DSboo58tcuAL-52WsQlw-8" value="OpenEBS&lt;div&gt;NFS Operator&lt;/div&gt;" style="whiteSpace=wrap;html=1;aspect=fixed;" vertex="1" parent="1">
          <mxGeometry x="408" y="590" width="80" height="80" as="geometry" />
        </mxCell>
        <mxCell id="DSboo58tcuAL-52WsQlw-49" style="edgeStyle=orthogonalEdgeStyle;rounded=0;orthogonalLoop=1;jettySize=auto;html=1;exitX=0.5;exitY=0;exitDx=0;exitDy=0;entryX=0;entryY=0.5;entryDx=0;entryDy=0;" edge="1" parent="1" source="DSboo58tcuAL-52WsQlw-6" target="DSboo58tcuAL-52WsQlw-23">
          <mxGeometry relative="1" as="geometry" />
        </mxCell>
        <mxCell id="DSboo58tcuAL-52WsQlw-50" value="Allocates" style="edgeLabel;html=1;align=center;verticalAlign=middle;resizable=0;points=[];" vertex="1" connectable="0" parent="DSboo58tcuAL-52WsQlw-49">
          <mxGeometry x="-0.0115" relative="1" as="geometry">
            <mxPoint x="-8" y="-35" as="offset" />
          </mxGeometry>
        </mxCell>
        <mxCell id="DSboo58tcuAL-52WsQlw-10" value="Persistent Volume" style="whiteSpace=wrap;html=1;aspect=fixed;fillColor=#e1d5e7;strokeColor=#9673a6;" vertex="1" parent="1">
          <mxGeometry x="320" y="300" width="80" height="80" as="geometry" />
        </mxCell>
        <mxCell id="DSboo58tcuAL-52WsQlw-23" value="dataset: pvc-1" style="rounded=0;whiteSpace=wrap;html=1;fillColor=#e1d5e7;strokeColor=#9673a6;" vertex="1" parent="1">
          <mxGeometry x="680" y="470" width="100" height="40" as="geometry" />
        </mxCell>
        <mxCell id="DSboo58tcuAL-52WsQlw-24" value="" style="rounded=1;whiteSpace=wrap;html=1;horizontal=1;verticalAlign=middle;fillColor=#f5f5f5;fontColor=#333333;align=left;strokeColor=#666666;" vertex="1" parent="1">
          <mxGeometry x="60" y="420" width="240" height="220" as="geometry" />
        </mxCell>
        <mxCell id="DSboo58tcuAL-52WsQlw-37" style="edgeStyle=orthogonalEdgeStyle;rounded=0;orthogonalLoop=1;jettySize=auto;html=1;exitX=0.5;exitY=1;exitDx=0;exitDy=0;entryX=0.5;entryY=0;entryDx=0;entryDy=0;" edge="1" parent="1" source="DSboo58tcuAL-52WsQlw-25" target="DSboo58tcuAL-52WsQlw-34">
          <mxGeometry relative="1" as="geometry" />
        </mxCell>
        <mxCell id="DSboo58tcuAL-52WsQlw-38" style="edgeStyle=orthogonalEdgeStyle;rounded=0;orthogonalLoop=1;jettySize=auto;html=1;exitX=0.5;exitY=0;exitDx=0;exitDy=0;entryX=0;entryY=0.5;entryDx=0;entryDy=0;endArrow=none;endFill=0;dashed=1;" edge="1" parent="1" source="DSboo58tcuAL-52WsQlw-25" target="DSboo58tcuAL-52WsQlw-26">
          <mxGeometry relative="1" as="geometry" />
        </mxCell>
        <mxCell id="DSboo58tcuAL-52WsQlw-25" value="container" style="whiteSpace=wrap;html=1;aspect=fixed;fillColor=#dae8fc;strokeColor=#6c8ebf;" vertex="1" parent="1">
          <mxGeometry x="80" y="540" width="80" height="80" as="geometry" />
        </mxCell>
        <mxCell id="DSboo58tcuAL-52WsQlw-26" value="Persistent&lt;div&gt;Volume&lt;/div&gt;&lt;div&gt;Claim&lt;/div&gt;&lt;div&gt;(zfs-rwx)&lt;/div&gt;" style="whiteSpace=wrap;html=1;aspect=fixed;fillColor=#f8cecc;strokeColor=#b85450;" vertex="1" parent="1">
          <mxGeometry x="140" y="440" width="80" height="80" as="geometry" />
        </mxCell>
        <mxCell id="DSboo58tcuAL-52WsQlw-36" style="edgeStyle=orthogonalEdgeStyle;rounded=0;orthogonalLoop=1;jettySize=auto;html=1;exitX=0.5;exitY=1;exitDx=0;exitDy=0;entryX=0.5;entryY=0;entryDx=0;entryDy=0;" edge="1" parent="1" source="DSboo58tcuAL-52WsQlw-27" target="DSboo58tcuAL-52WsQlw-34">
          <mxGeometry relative="1" as="geometry" />
        </mxCell>
        <mxCell id="DSboo58tcuAL-52WsQlw-39" style="edgeStyle=orthogonalEdgeStyle;rounded=0;orthogonalLoop=1;jettySize=auto;html=1;exitX=0.5;exitY=0;exitDx=0;exitDy=0;entryX=1;entryY=0.5;entryDx=0;entryDy=0;dashed=1;endArrow=none;endFill=0;" edge="1" parent="1" source="DSboo58tcuAL-52WsQlw-27" target="DSboo58tcuAL-52WsQlw-26">
          <mxGeometry relative="1" as="geometry" />
        </mxCell>
        <mxCell id="DSboo58tcuAL-52WsQlw-27" value="container" style="whiteSpace=wrap;html=1;aspect=fixed;fillColor=#dae8fc;strokeColor=#6c8ebf;" vertex="1" parent="1">
          <mxGeometry x="200" y="540" width="80" height="80" as="geometry" />
        </mxCell>
        <mxCell id="DSboo58tcuAL-52WsQlw-28" value="Persistent&lt;div&gt;Volume&lt;/div&gt;" style="whiteSpace=wrap;html=1;aspect=fixed;fillColor=#f8cecc;strokeColor=#b85450;" vertex="1" parent="1">
          <mxGeometry x="320" y="440" width="80" height="80" as="geometry" />
        </mxCell>
        <mxCell id="DSboo58tcuAL-52WsQlw-42" style="edgeStyle=orthogonalEdgeStyle;rounded=0;orthogonalLoop=1;jettySize=auto;html=1;exitX=1;exitY=0.5;exitDx=0;exitDy=0;entryX=0;entryY=0.5;entryDx=0;entryDy=0;dashed=1;endArrow=none;endFill=0;" edge="1" parent="1" source="DSboo58tcuAL-52WsQlw-31" target="DSboo58tcuAL-52WsQlw-32">
          <mxGeometry relative="1" as="geometry" />
        </mxCell>
        <mxCell id="DSboo58tcuAL-52WsQlw-31" value="nfsd" style="whiteSpace=wrap;html=1;aspect=fixed;fillColor=#f8cecc;strokeColor=#b85450;" vertex="1" parent="1">
          <mxGeometry x="80" y="820" width="80" height="80" as="geometry" />
        </mxCell>
        <mxCell id="DSboo58tcuAL-52WsQlw-32" value="Persistent&lt;div&gt;Volume&lt;/div&gt;&lt;div&gt;Claim&lt;/div&gt;&lt;div&gt;(zfs-rwo)&lt;/div&gt;" style="whiteSpace=wrap;html=1;aspect=fixed;fillColor=#e1d5e7;strokeColor=#9673a6;" vertex="1" parent="1">
          <mxGeometry x="200" y="820" width="80" height="80" as="geometry" />
        </mxCell>
        <mxCell id="DSboo58tcuAL-52WsQlw-47" style="edgeStyle=orthogonalEdgeStyle;rounded=0;orthogonalLoop=1;jettySize=auto;html=1;exitX=0.5;exitY=1;exitDx=0;exitDy=0;entryX=0;entryY=0.5;entryDx=0;entryDy=0;" edge="1" parent="1" source="DSboo58tcuAL-52WsQlw-6" target="DSboo58tcuAL-52WsQlw-43">
          <mxGeometry relative="1" as="geometry" />
        </mxCell>
        <mxCell id="DSboo58tcuAL-52WsQlw-48" value="Allocates" style="edgeLabel;html=1;align=center;verticalAlign=middle;resizable=0;points=[];" vertex="1" connectable="0" parent="DSboo58tcuAL-52WsQlw-47">
          <mxGeometry x="-0.1297" relative="1" as="geometry">
            <mxPoint x="-8" y="43" as="offset" />
          </mxGeometry>
        </mxCell>
        <mxCell id="DSboo58tcuAL-52WsQlw-33" value="Persistent Volume" style="whiteSpace=wrap;html=1;aspect=fixed;fillColor=#e1d5e7;strokeColor=#9673a6;" vertex="1" parent="1">
          <mxGeometry x="320" y="820" width="80" height="80" as="geometry" />
        </mxCell>
        <mxCell id="DSboo58tcuAL-52WsQlw-41" style="edgeStyle=orthogonalEdgeStyle;rounded=0;orthogonalLoop=1;jettySize=auto;html=1;exitX=0;exitY=0.5;exitDx=0;exitDy=0;" edge="1" parent="1" source="DSboo58tcuAL-52WsQlw-34" target="DSboo58tcuAL-52WsQlw-31">
          <mxGeometry relative="1" as="geometry" />
        </mxCell>
        <mxCell id="DSboo58tcuAL-52WsQlw-34" value="service" style="whiteSpace=wrap;html=1;aspect=fixed;fillColor=#f8cecc;strokeColor=#b85450;" vertex="1" parent="1">
          <mxGeometry x="140" y="720" width="80" height="80" as="geometry" />
        </mxCell>
        <mxCell id="DSboo58tcuAL-52WsQlw-43" value="dataset: pvc-2" style="rounded=0;whiteSpace=wrap;html=1;fillColor=#e1d5e7;strokeColor=#9673a6;" vertex="1" parent="1">
          <mxGeometry x="680" y="750" width="100" height="40" as="geometry" />
        </mxCell>
        <mxCell id="DSboo58tcuAL-52WsQlw-46" value="" style="group;fillColor=#fff2cc;strokeColor=#d6b656;" vertex="1" connectable="0" parent="1">
          <mxGeometry x="780" y="470" width="200" height="320" as="geometry" />
        </mxCell>
        <mxCell id="DSboo58tcuAL-52WsQlw-11" value="ZFS" style="rounded=0;whiteSpace=wrap;html=1;horizontal=0;fillColor=#fff2cc;strokeColor=#d6b656;" vertex="1" parent="DSboo58tcuAL-52WsQlw-46">
          <mxGeometry x="40" width="40" height="320" as="geometry" />
        </mxCell>
        <mxCell id="DSboo58tcuAL-52WsQlw-45" value="" style="group" vertex="1" connectable="0" parent="DSboo58tcuAL-52WsQlw-46">
          <mxGeometry width="200" height="320" as="geometry" />
        </mxCell>
        <mxCell id="DSboo58tcuAL-52WsQlw-12" value="/dev/sdb" style="rounded=0;whiteSpace=wrap;html=1;fillColor=#f5f5f5;fontColor=#333333;strokeColor=#666666;" vertex="1" parent="DSboo58tcuAL-52WsQlw-45">
          <mxGeometry x="80" width="120" height="40" as="geometry" />
        </mxCell>
        <mxCell id="DSboo58tcuAL-52WsQlw-13" value="/dev/sdc" style="rounded=0;whiteSpace=wrap;html=1;fillColor=#f5f5f5;fontColor=#333333;strokeColor=#666666;" vertex="1" parent="DSboo58tcuAL-52WsQlw-45">
          <mxGeometry x="80" y="40" width="120" height="40" as="geometry" />
        </mxCell>
        <mxCell id="DSboo58tcuAL-52WsQlw-14" value="/dev/sdd" style="rounded=0;whiteSpace=wrap;html=1;fillColor=#f5f5f5;fontColor=#333333;strokeColor=#666666;" vertex="1" parent="DSboo58tcuAL-52WsQlw-45">
          <mxGeometry x="80" y="80" width="120" height="40" as="geometry" />
        </mxCell>
        <mxCell id="DSboo58tcuAL-52WsQlw-15" value="/dev/sde" style="rounded=0;whiteSpace=wrap;html=1;fillColor=#f5f5f5;fontColor=#333333;strokeColor=#666666;" vertex="1" parent="DSboo58tcuAL-52WsQlw-45">
          <mxGeometry x="80" y="120" width="120" height="40" as="geometry" />
        </mxCell>
        <mxCell id="DSboo58tcuAL-52WsQlw-16" value="/dev/sdf" style="rounded=0;whiteSpace=wrap;html=1;fillColor=#f5f5f5;fontColor=#333333;strokeColor=#666666;" vertex="1" parent="DSboo58tcuAL-52WsQlw-45">
          <mxGeometry x="80" y="160" width="120" height="40" as="geometry" />
        </mxCell>
        <mxCell id="DSboo58tcuAL-52WsQlw-17" value="/dev/sdh" style="rounded=0;whiteSpace=wrap;html=1;fillColor=#f5f5f5;fontColor=#333333;strokeColor=#666666;" vertex="1" parent="DSboo58tcuAL-52WsQlw-45">
          <mxGeometry x="80" y="200" width="120" height="40" as="geometry" />
        </mxCell>
        <mxCell id="DSboo58tcuAL-52WsQlw-18" value="/dev/sdi" style="rounded=0;whiteSpace=wrap;html=1;fillColor=#f5f5f5;fontColor=#333333;strokeColor=#666666;" vertex="1" parent="DSboo58tcuAL-52WsQlw-45">
          <mxGeometry x="80" y="240" width="120" height="40" as="geometry" />
        </mxCell>
        <mxCell id="DSboo58tcuAL-52WsQlw-19" value="/dev/sdj" style="rounded=0;whiteSpace=wrap;html=1;fillColor=#f5f5f5;fontColor=#333333;strokeColor=#666666;" vertex="1" parent="DSboo58tcuAL-52WsQlw-45">
          <mxGeometry x="80" y="280" width="120" height="40" as="geometry" />
        </mxCell>
        <mxCell id="DSboo58tcuAL-52WsQlw-21" value="zpool&amp;nbsp; &quot;data&quot;" style="rounded=0;whiteSpace=wrap;html=1;horizontal=0;fillColor=#fff2cc;strokeColor=#d6b656;" vertex="1" parent="DSboo58tcuAL-52WsQlw-45">
          <mxGeometry width="40" height="320" as="geometry" />
        </mxCell>
        <mxCell id="DSboo58tcuAL-52WsQlw-56" style="edgeStyle=orthogonalEdgeStyle;rounded=0;orthogonalLoop=1;jettySize=auto;html=1;exitX=0;exitY=0.5;exitDx=0;exitDy=0;entryX=1;entryY=0.5;entryDx=0;entryDy=0;" edge="1" parent="1" source="DSboo58tcuAL-52WsQlw-8" target="DSboo58tcuAL-52WsQlw-27">
          <mxGeometry relative="1" as="geometry" />
        </mxCell>
        <mxCell id="DSboo58tcuAL-52WsQlw-57" value="Configures&amp;nbsp;&lt;div&gt;network mounts&lt;/div&gt;" style="edgeLabel;html=1;align=center;verticalAlign=middle;resizable=0;points=[];" vertex="1" connectable="0" parent="DSboo58tcuAL-52WsQlw-56">
          <mxGeometry x="0.2897" relative="1" as="geometry">
            <mxPoint x="6" y="20" as="offset" />
          </mxGeometry>
        </mxCell>
        <mxCell id="DSboo58tcuAL-52WsQlw-63" value="Storage Class&lt;div&gt;zfs-rwx&lt;/div&gt;" style="whiteSpace=wrap;html=1;aspect=fixed;fillColor=#f8cecc;strokeColor=#b85450;" vertex="1" parent="1">
          <mxGeometry x="470" y="540" width="60" height="60" as="geometry" />
        </mxCell>
      </root>
    </mxGraphModel>
  </diagram>
  <diagram id="HBpLRJj61KdkfzT1Da7W" name="Service Flow">
    <mxGraphModel grid="1" page="1" gridSize="10" guides="1" tooltips="1" connect="1" arrows="1" fold="1" pageScale="1" pageWidth="827" pageHeight="1169" math="0" shadow="0">
      <root>
        <mxCell id="0" />
        <mxCell id="1" parent="0" />
        <mxCell id="IvFB8CJMPVDLsbIIlRhp-10" style="edgeStyle=orthogonalEdgeStyle;rounded=0;orthogonalLoop=1;jettySize=auto;html=1;exitX=0.5;exitY=0;exitDx=0;exitDy=0;entryX=0;entryY=0.5;entryDx=0;entryDy=0;" edge="1" parent="1" source="IvFB8CJMPVDLsbIIlRhp-1" target="IvFB8CJMPVDLsbIIlRhp-3">
          <mxGeometry relative="1" as="geometry" />
        </mxCell>
        <mxCell id="IvFB8CJMPVDLsbIIlRhp-11" style="edgeStyle=orthogonalEdgeStyle;rounded=0;orthogonalLoop=1;jettySize=auto;html=1;exitX=0.5;exitY=0;exitDx=0;exitDy=0;entryX=0;entryY=0.5;entryDx=0;entryDy=0;" edge="1" parent="1" source="IvFB8CJMPVDLsbIIlRhp-1" target="IvFB8CJMPVDLsbIIlRhp-4">
          <mxGeometry relative="1" as="geometry" />
        </mxCell>
        <mxCell id="IvFB8CJMPVDLsbIIlRhp-21" style="edgeStyle=orthogonalEdgeStyle;rounded=0;orthogonalLoop=1;jettySize=auto;html=1;exitX=1;exitY=0.5;exitDx=0;exitDy=0;entryX=0.5;entryY=1;entryDx=0;entryDy=0;" edge="1" parent="1" source="IvFB8CJMPVDLsbIIlRhp-1" target="IvFB8CJMPVDLsbIIlRhp-9">
          <mxGeometry relative="1" as="geometry" />
        </mxCell>
        <mxCell id="IvFB8CJMPVDLsbIIlRhp-27" style="edgeStyle=orthogonalEdgeStyle;rounded=0;orthogonalLoop=1;jettySize=auto;html=1;exitX=0.5;exitY=1;exitDx=0;exitDy=0;entryX=0;entryY=0.5;entryDx=0;entryDy=0;" edge="1" parent="1" source="IvFB8CJMPVDLsbIIlRhp-1" target="IvFB8CJMPVDLsbIIlRhp-24">
          <mxGeometry relative="1" as="geometry" />
        </mxCell>
        <mxCell id="IvFB8CJMPVDLsbIIlRhp-28" style="edgeStyle=orthogonalEdgeStyle;rounded=0;orthogonalLoop=1;jettySize=auto;html=1;exitX=0.5;exitY=1;exitDx=0;exitDy=0;entryX=0;entryY=0.5;entryDx=0;entryDy=0;" edge="1" parent="1" source="IvFB8CJMPVDLsbIIlRhp-1" target="IvFB8CJMPVDLsbIIlRhp-25">
          <mxGeometry relative="1" as="geometry" />
        </mxCell>
        <mxCell id="IvFB8CJMPVDLsbIIlRhp-32" style="edgeStyle=orthogonalEdgeStyle;rounded=0;orthogonalLoop=1;jettySize=auto;html=1;exitX=0.5;exitY=1;exitDx=0;exitDy=0;entryX=0;entryY=0.5;entryDx=0;entryDy=0;" edge="1" parent="1" source="IvFB8CJMPVDLsbIIlRhp-1" target="IvFB8CJMPVDLsbIIlRhp-31">
          <mxGeometry relative="1" as="geometry" />
        </mxCell>
        <mxCell id="IvFB8CJMPVDLsbIIlRhp-1" value="&lt;div&gt;https-in-gw&lt;/div&gt;&lt;div&gt;(Istio/Gateway)&lt;br&gt;&lt;/div&gt;" style="rounded=0;whiteSpace=wrap;html=1;" vertex="1" parent="1">
          <mxGeometry x="150" y="500" width="120" height="60" as="geometry" />
        </mxCell>
        <mxCell id="IvFB8CJMPVDLsbIIlRhp-2" value="External" style="ellipse;shape=cloud;whiteSpace=wrap;html=1;" vertex="1" parent="1">
          <mxGeometry y="490" width="120" height="80" as="geometry" />
        </mxCell>
        <mxCell id="IvFB8CJMPVDLsbIIlRhp-14" style="edgeStyle=orthogonalEdgeStyle;rounded=0;orthogonalLoop=1;jettySize=auto;html=1;exitX=1;exitY=0.5;exitDx=0;exitDy=0;" edge="1" parent="1" source="IvFB8CJMPVDLsbIIlRhp-3">
          <mxGeometry relative="1" as="geometry">
            <mxPoint x="579.9999999999995" y="389.9999999999998" as="targetPoint" />
          </mxGeometry>
        </mxCell>
        <mxCell id="IvFB8CJMPVDLsbIIlRhp-3" value="argocd-server" style="rounded=0;whiteSpace=wrap;html=1;" vertex="1" parent="1">
          <mxGeometry x="294" y="220" width="120" height="60" as="geometry" />
        </mxCell>
        <mxCell id="IvFB8CJMPVDLsbIIlRhp-13" style="edgeStyle=orthogonalEdgeStyle;rounded=0;orthogonalLoop=1;jettySize=auto;html=1;exitX=1;exitY=0.5;exitDx=0;exitDy=0;entryX=0.5;entryY=0;entryDx=0;entryDy=0;" edge="1" parent="1" source="IvFB8CJMPVDLsbIIlRhp-4" target="IvFB8CJMPVDLsbIIlRhp-5">
          <mxGeometry relative="1" as="geometry" />
        </mxCell>
        <mxCell id="IvFB8CJMPVDLsbIIlRhp-30" style="edgeStyle=orthogonalEdgeStyle;rounded=0;orthogonalLoop=1;jettySize=auto;html=1;exitX=0.5;exitY=1;exitDx=0;exitDy=0;" edge="1" parent="1" source="IvFB8CJMPVDLsbIIlRhp-4" target="IvFB8CJMPVDLsbIIlRhp-29">
          <mxGeometry relative="1" as="geometry" />
        </mxCell>
        <mxCell id="IvFB8CJMPVDLsbIIlRhp-4" value="jellyfin" style="rounded=0;whiteSpace=wrap;html=1;" vertex="1" parent="1">
          <mxGeometry x="294" y="310" width="120" height="60" as="geometry" />
        </mxCell>
        <mxCell id="IvFB8CJMPVDLsbIIlRhp-15" style="edgeStyle=orthogonalEdgeStyle;rounded=0;orthogonalLoop=1;jettySize=auto;html=1;exitX=1;exitY=0.5;exitDx=0;exitDy=0;entryX=0;entryY=0.5;entryDx=0;entryDy=0;" edge="1" parent="1" source="IvFB8CJMPVDLsbIIlRhp-5" target="IvFB8CJMPVDLsbIIlRhp-6">
          <mxGeometry relative="1" as="geometry" />
        </mxCell>
        <mxCell id="IvFB8CJMPVDLsbIIlRhp-16" style="edgeStyle=orthogonalEdgeStyle;rounded=0;orthogonalLoop=1;jettySize=auto;html=1;exitX=1;exitY=0.5;exitDx=0;exitDy=0;entryX=0;entryY=0.5;entryDx=0;entryDy=0;" edge="1" parent="1" source="IvFB8CJMPVDLsbIIlRhp-5" target="IvFB8CJMPVDLsbIIlRhp-8">
          <mxGeometry relative="1" as="geometry" />
        </mxCell>
        <mxCell id="IvFB8CJMPVDLsbIIlRhp-17" style="edgeStyle=orthogonalEdgeStyle;rounded=0;orthogonalLoop=1;jettySize=auto;html=1;exitX=1;exitY=0.5;exitDx=0;exitDy=0;entryX=0;entryY=0.5;entryDx=0;entryDy=0;" edge="1" parent="1" source="IvFB8CJMPVDLsbIIlRhp-5" target="IvFB8CJMPVDLsbIIlRhp-7">
          <mxGeometry relative="1" as="geometry" />
        </mxCell>
        <mxCell id="IvFB8CJMPVDLsbIIlRhp-5" value="otel-col-cluster" style="rounded=0;whiteSpace=wrap;html=1;" vertex="1" parent="1">
          <mxGeometry x="520" y="390" width="120" height="60" as="geometry" />
        </mxCell>
        <mxCell id="IvFB8CJMPVDLsbIIlRhp-6" value="mimir" style="rounded=0;whiteSpace=wrap;html=1;" vertex="1" parent="1">
          <mxGeometry x="690" y="320" width="120" height="60" as="geometry" />
        </mxCell>
        <mxCell id="IvFB8CJMPVDLsbIIlRhp-7" value="loki" style="rounded=0;whiteSpace=wrap;html=1;" vertex="1" parent="1">
          <mxGeometry x="690" y="390" width="120" height="60" as="geometry" />
        </mxCell>
        <mxCell id="IvFB8CJMPVDLsbIIlRhp-8" value="tempo" style="rounded=0;whiteSpace=wrap;html=1;" vertex="1" parent="1">
          <mxGeometry x="690" y="460" width="120" height="60" as="geometry" />
        </mxCell>
        <mxCell id="IvFB8CJMPVDLsbIIlRhp-18" style="edgeStyle=orthogonalEdgeStyle;rounded=0;orthogonalLoop=1;jettySize=auto;html=1;exitX=0;exitY=0.5;exitDx=0;exitDy=0;entryX=1;entryY=0.5;entryDx=0;entryDy=0;" edge="1" parent="1" source="IvFB8CJMPVDLsbIIlRhp-9" target="IvFB8CJMPVDLsbIIlRhp-6">
          <mxGeometry relative="1" as="geometry" />
        </mxCell>
        <mxCell id="IvFB8CJMPVDLsbIIlRhp-19" style="edgeStyle=orthogonalEdgeStyle;rounded=0;orthogonalLoop=1;jettySize=auto;html=1;exitX=0;exitY=0.5;exitDx=0;exitDy=0;entryX=1;entryY=0.5;entryDx=0;entryDy=0;" edge="1" parent="1" source="IvFB8CJMPVDLsbIIlRhp-9" target="IvFB8CJMPVDLsbIIlRhp-7">
          <mxGeometry relative="1" as="geometry" />
        </mxCell>
        <mxCell id="IvFB8CJMPVDLsbIIlRhp-20" style="edgeStyle=orthogonalEdgeStyle;rounded=0;orthogonalLoop=1;jettySize=auto;html=1;exitX=0;exitY=0.5;exitDx=0;exitDy=0;entryX=1;entryY=0.5;entryDx=0;entryDy=0;" edge="1" parent="1" source="IvFB8CJMPVDLsbIIlRhp-9" target="IvFB8CJMPVDLsbIIlRhp-8">
          <mxGeometry relative="1" as="geometry" />
        </mxCell>
        <mxCell id="IvFB8CJMPVDLsbIIlRhp-9" value="grafana" style="rounded=0;whiteSpace=wrap;html=1;" vertex="1" parent="1">
          <mxGeometry x="880" y="390" width="120" height="60" as="geometry" />
        </mxCell>
        <mxCell id="IvFB8CJMPVDLsbIIlRhp-22" value="argocd-redis" style="rounded=0;whiteSpace=wrap;html=1;" vertex="1" parent="1">
          <mxGeometry x="90" y="-10" width="120" height="60" as="geometry" />
        </mxCell>
        <mxCell id="IvFB8CJMPVDLsbIIlRhp-23" value="kube-system" style="rounded=1;whiteSpace=wrap;html=1;verticalAlign=bottom;" vertex="1" parent="1">
          <mxGeometry x="1060" y="20" width="390" height="60" as="geometry" />
        </mxCell>
        <mxCell id="IvFB8CJMPVDLsbIIlRhp-24" value="matchbox" style="rounded=0;whiteSpace=wrap;html=1;" vertex="1" parent="1">
          <mxGeometry x="294" y="560" width="120" height="60" as="geometry" />
        </mxCell>
        <mxCell id="IvFB8CJMPVDLsbIIlRhp-25" value="pxe-server" style="rounded=0;whiteSpace=wrap;html=1;" vertex="1" parent="1">
          <mxGeometry x="294" y="670" width="120" height="60" as="geometry" />
        </mxCell>
        <mxCell id="IvFB8CJMPVDLsbIIlRhp-29" value="nfs-server" style="rounded=0;whiteSpace=wrap;html=1;" vertex="1" parent="1">
          <mxGeometry x="294" y="390" width="120" height="60" as="geometry" />
        </mxCell>
        <mxCell id="IvFB8CJMPVDLsbIIlRhp-31" value="file-server" style="rounded=0;whiteSpace=wrap;html=1;" vertex="1" parent="1">
          <mxGeometry x="294" y="770" width="120" height="60" as="geometry" />
        </mxCell>
        <mxCell id="IvFB8CJMPVDLsbIIlRhp-35" style="edgeStyle=orthogonalEdgeStyle;rounded=0;orthogonalLoop=1;jettySize=auto;html=1;exitX=0;exitY=0.5;exitDx=0;exitDy=0;entryX=0.5;entryY=0;entryDx=0;entryDy=0;" edge="1" parent="1" source="IvFB8CJMPVDLsbIIlRhp-34" target="IvFB8CJMPVDLsbIIlRhp-5">
          <mxGeometry relative="1" as="geometry" />
        </mxCell>
        <mxCell id="IvFB8CJMPVDLsbIIlRhp-34" value="cert-manager" style="rounded=0;whiteSpace=wrap;html=1;" vertex="1" parent="1">
          <mxGeometry x="690" y="220" width="120" height="60" as="geometry" />
        </mxCell>
        <mxCell id="IvFB8CJMPVDLsbIIlRhp-36" value="&lt;div&gt;argocd-application-controller&lt;/div&gt;" style="rounded=0;whiteSpace=wrap;html=1;" vertex="1" parent="1">
          <mxGeometry x="90" y="60" width="120" height="60" as="geometry" />
        </mxCell>
        <mxCell id="IvFB8CJMPVDLsbIIlRhp-37" value="&lt;div&gt;argocd-application-set-controller&lt;/div&gt;" style="rounded=0;whiteSpace=wrap;html=1;" vertex="1" parent="1">
          <mxGeometry x="90" y="130" width="120" height="60" as="geometry" />
        </mxCell>
        <mxCell id="IvFB8CJMPVDLsbIIlRhp-38" value="argocd-repo-server" style="rounded=0;whiteSpace=wrap;html=1;" vertex="1" parent="1">
          <mxGeometry x="230" y="10" width="120" height="60" as="geometry" />
        </mxCell>
        <mxCell id="IvFB8CJMPVDLsbIIlRhp-39" value="argocd-notifications-controller" style="rounded=0;whiteSpace=wrap;html=1;" vertex="1" parent="1">
          <mxGeometry x="370" y="10" width="120" height="60" as="geometry" />
        </mxCell>
        <mxCell id="IvFB8CJMPVDLsbIIlRhp-40" value="argocd-dex-server" style="rounded=0;whiteSpace=wrap;html=1;" vertex="1" parent="1">
          <mxGeometry x="240" y="90" width="120" height="60" as="geometry" />
        </mxCell>
      </root>
    </mxGraphModel>
  </diagram>
</mxfile>
